# xmcd
#
# Track frame offsets:
#	150
#	11481
#	24458
#	45801
#	58952
#	70624
#	87013
#	103463
#	132426
#	148276
#
# Disc length: 2168
#
# Revision: 2
# Processed by: cddbd v1.5.1PL0 Copyright (c) Steve Scherf et al.
# Submitted via: audiograbber 1.80
# Normalized: r1:DSETVAR1
#
DISCID=8708760a
DTITLE=Various Artist - Year of the BLUES
DYEAR=1900
DGENRE=
TTITLE0=Robert Johnson - Crooss Road Blues
TTITLE1=Willie Dixon - Bring It On Home
TTITLE2=Willie Dixon - Third Degree
TTITLE3=Robert Johnson - Kindhearted Woman Blues
TTITLE4=Chester Burnett - How Many More Years
TTITLE5=Willie Dixon - Hoochie Coochie Man
TTITLE6=Robert Johnson - Love In Vain
TTITLE7=Chester Burnett - I'm The Wolf
TTITLE8=Robert Johnson - Walking Blues
TTITLE9=Charles Brown. Johny Moore, EdrJe Wtems - Driftin
EXTD=
EXTT0=
EXTT1=
EXTT2=
EXTT3=
EXTT4=
EXTT5=
EXTT6=
EXTT7=
EXTT8=
EXTT9=
PLAYORDER=
